<?xml version="1.0" encoding="utf-8"?>
<svg xmlns="http://www.w3.org/2000/svg" viewBox="0 0 272 92" width="272" height="92" xmlns:bx="https://boxy-svg.com"><defs><bx:export><bx:file format="svg" path="未命名.svg"/></bx:export></defs><path fill="#EA4335" d="M 112.428 47.18 C 112.428 59.95 102.438 69.36 90.178 69.36 C 77.918 69.36 67.928 59.95 67.928 47.18 C 67.928 34.32 77.918 25 90.178 25 C 102.438 25 112.428 34.32 112.428 47.18 Z M 102.688 47.18 C 102.688 39.2 96.898 33.74 90.178 33.74 C 83.458 33.74 77.668 39.2 77.668 47.18 C 77.668 55.08 83.458 60.62 90.178 60.62 C 96.898 60.62 102.688 55.07 102.688 47.18 Z"/><path fill="#FBBC05" d="M 166.888 47.18 C 166.888 59.95 156.898 69.36 144.638 69.36 C 132.378 69.36 122.388 59.95 122.388 47.18 C 122.388 34.33 132.378 25 144.638 25 C 156.898 25 166.888 34.32 166.888 47.18 Z M 157.148 47.18 C 157.148 39.2 151.358 33.74 144.638 33.74 C 137.918 33.74 132.128 39.2 132.128 47.18 C 132.128 55.08 137.918 60.62 144.638 60.62 C 151.358 60.62 157.148 55.07 157.148 47.18 Z"/><path fill="#4285F4" d="M209.75 26.34v39.82c0 16.38-9.66 23.07-21.08 23.07-10.75 0-17.22-7.19-19.66-13.07l8.48-3.53c1.51 3.61 5.21 7.87 11.17 7.87 7.31 0 11.84-4.51 11.84-13v-3.19h-.34c-2.18 2.69-6.38 5.04-11.68 5.04-11.09 0-21.25-9.66-21.25-22.09 0-12.52 10.16-22.26 21.25-22.26 5.29 0 9.49 2.35 11.68 4.96h.34v-3.61h9.25zm-8.56 20.92c0-7.81-5.21-13.52-11.84-13.52-6.72 0-12.35 5.71-12.35 13.52 0 7.73 5.63 13.36 12.35 13.36 6.63 0 11.84-5.63 11.84-13.36z"/><path fill="#34A853" d="M225 3v65h-9.5V3h9.5z"/><path fill="#EA4335" d="M262.02 54.48l7.56 5.04c-2.44 3.61-8.32 9.83-18.48 9.83-12.6 0-22.01-9.74-22.01-22.18 0-13.19 9.49-22.18 20.92-22.18 11.51 0 17.14 9.16 18.98 14.11l1.01 2.52-29.65 12.28c2.27 4.45 5.8 6.72 10.75 6.72 4.96 0 8.4-2.44 10.92-6.14zm-23.27-7.98l19.82-8.23c-1.09-2.77-4.37-4.7-8.23-4.7-4.95 0-11.84 4.37-11.59 12.93z"/><path fill="#4285F4" d="M35.29 41.41V32H67c.31 1.64.47 3.58.47 5.68 0 7.06-1.93 15.79-8.15 22.01-6.05 6.3-13.78 9.66-24.02 9.66C16.32 69.35.36 53.89.36 34.91.36 15.93 16.32.47 35.3.47c10.5 0 17.98 4.12 23.6 9.49l-6.64 6.64c-4.03-3.78-9.49-6.72-16.97-6.72-13.86 0-24.7 11.17-24.7 25.03 0 13.86 10.84 25.03 24.7 25.03 8.99 0 14.11-3.61 17.39-6.89 2.66-2.66 4.41-6.46 5.1-11.65l-22.49.01z"/><path fill="#EA4335" d="M 114.448 82.277 C 114.448 87.058 110.708 90.58 106.117 90.58 C 101.527 90.58 97.787 87.058 97.787 82.277 C 97.787 77.462 101.527 73.972 106.117 73.972 C 110.708 73.972 114.448 77.462 114.448 82.277 Z M 110.801 82.277 C 110.801 79.289 108.633 77.244 106.117 77.244 C 103.602 77.244 101.434 79.289 101.434 82.277 C 101.434 85.235 103.602 87.308 106.117 87.308 C 108.633 87.308 110.801 85.23 110.801 82.277 Z" style="stroke-width: 1;"/><path fill="#FBBC05" d="M 132.42 82.277 C 132.42 87.058 128.679 90.58 124.089 90.58 C 119.499 90.58 115.759 87.058 115.759 82.277 C 115.759 77.465 119.499 73.972 124.089 73.972 C 128.679 73.972 132.42 77.462 132.42 82.277 Z M 128.773 82.277 C 128.773 79.289 126.605 77.244 124.089 77.244 C 121.573 77.244 119.405 79.289 119.405 82.277 C 119.405 85.235 121.573 87.308 124.089 87.308 C 126.605 87.308 128.773 85.23 128.773 82.277 Z" style="stroke-width: 1;"/><path style="fill: none; stroke: rgb(0, 0, 0); stroke-linecap: round; stroke-linejoin: round; stroke-width: 2px;" d="M 96.371 72.352 C 96.371 72.352 112.6 67.956 117.99 60.767 C 120.57 67.207 131.687 74.151 138.101 76.842"/></svg>